HIERARCHY
ROOT root
{
	OFFSET 0.000000 0.000000 0.000000
	CHANNELS 6 Xposition Yposition Zposition Zrotation Yrotation Xrotation
	JOINT lhip
	{
		OFFSET 0.058581 -0.082280 -0.017664
		CHANNELS 3 Zrotation Yrotation Xrotation
		JOINT lknee
		{
			OFFSET 0.043451 -0.386469 0.008037
			CHANNELS 3 Zrotation Yrotation Xrotation
			JOINT lankle
			{
				OFFSET -0.014790 -0.426874 -0.037428
				CHANNELS 3 Zrotation Yrotation Xrotation
				JOINT ltoe
				{
					OFFSET 0.041054 -0.060286 0.122042
					CHANNELS 3 Zrotation Yrotation Xrotation
					End Site
					{
						OFFSET 0.000000 0.000000 0.000000
					}
				}
			}
		}
	}
	JOINT rhip
	{
		OFFSET -0.060310 -0.090513 -0.013543
		CHANNELS 3 Zrotation Yrotation Xrotation
		JOINT rknee
		{
			OFFSET -0.043257 -0.383688 -0.004843
			CHANNELS 3 Zrotation Yrotation Xrotation
			JOINT rankle
			{
				OFFSET 0.019056 -0.420046 -0.034562
				CHANNELS 3 Zrotation Yrotation Xrotation
				JOINT rtoe
				{
					OFFSET -0.034840 -0.062106 0.130323
					CHANNELS 3 Zrotation Yrotation Xrotation
					End Site
					{
						OFFSET 0.000000 0.000000 0.000000
					}
				}
			}
		}
	}
	JOINT lowerback
	{
		OFFSET 0.004439 0.124404 -0.038385
		CHANNELS 3 Zrotation Yrotation Xrotation
		JOINT upperback
		{
			OFFSET 0.004488 0.137956 0.026820
			CHANNELS 3 Zrotation Yrotation Xrotation
			JOINT chest
			{
				OFFSET -0.002265 0.056032 0.002855
				CHANNELS 3 Zrotation Yrotation Xrotation
				JOINT lowerneck
				{
					OFFSET -0.013390 0.211636 -0.033468
					CHANNELS 3 Zrotation Yrotation Xrotation
					JOINT upperneck
					{
						OFFSET 0.010113 0.088937 0.050410
						CHANNELS 3 Zrotation Yrotation Xrotation
						End Site
						{
							OFFSET 0.000000 0.000000 0.000000
						}
					}
				}
				JOINT lclavicle
				{
					OFFSET 0.071702 0.114000 -0.018898
					CHANNELS 3 Zrotation Yrotation Xrotation
					JOINT lshoulder
					{
						OFFSET 0.122921 0.045205 -0.019046
						CHANNELS 3 Zrotation Yrotation Xrotation
						JOINT lelbow
						{
							OFFSET 0.255332 -0.015649 -0.022946
							CHANNELS 3 Zrotation Yrotation Xrotation
							JOINT lwrist
							{
								OFFSET 0.265709 0.012698 -0.007375
								CHANNELS 3 Zrotation Yrotation Xrotation
								End Site
								{
									OFFSET 0.000000 0.000000 0.000000
								}
							}
						}
					}
				}
				JOINT rclavicle
				{
					OFFSET -0.082954 0.112472 -0.023707
					CHANNELS 3 Zrotation Yrotation Xrotation
					JOINT rshoulder
					{
						OFFSET -0.113228 0.046853 -0.008472
						CHANNELS 3 Zrotation Yrotation Xrotation
						JOINT relbow
						{
							OFFSET -0.260127 -0.014369 -0.031269
							CHANNELS 3 Zrotation Yrotation Xrotation
							JOINT rwrist
							{
								OFFSET -0.269108 0.006794 -0.006027
								CHANNELS 3 Zrotation Yrotation Xrotation
								End Site
								{
									OFFSET 0.000000 0.000000 0.000000
								}
							}
						}
					}
				}
			}
		}
	}
}
MOTION
Frames: 5
Frame Time: 0.033333
-0.104226 -0.431381 0.820309 -141.646373 -3.305996 112.117741 16.133072 5.304869 -19.323533 -12.556185 -0.396086 51.622432 -8.240399 2.197293 -25.180432 0.000000 -0.000000 0.000000 -8.426827 -8.841092 -60.464969 -6.742834 -24.914139 101.767071 0.103612 0.265073 -24.220739 0.000000 -0.000000 0.000000 -5.563412 1.080063 38.780067 4.630139 -2.001862 8.344054 4.552038 -0.784674 -4.244700 2.884718 7.122906 -17.202276 10.512935 -15.950826 -20.076063 -19.884543 -16.466789 -1.903818 -25.934911 -19.223415 -9.179753 56.026192 -45.159092 -65.365709 -9.519170 -17.126118 -38.818497 29.008664 13.321734 5.519871 41.767534 9.089338 -1.619667 -39.482061 43.426347 -35.192008 -9.971586 11.330009 -12.097695 
-0.167141 -0.335608 0.828991 -143.349903 -4.677087 113.657291 14.651086 4.690717 -8.186945 -11.246943 -5.299121 40.347604 -15.454376 -0.321016 -8.412950 0.000000 -0.000000 0.000000 -7.410753 -8.770371 -71.259715 -5.089507 -31.731562 87.050348 0.760442 5.831261 -24.658692 0.000000 -0.000000 0.000000 -3.337592 -3.400787 35.588057 2.283917 1.506816 8.398049 2.258081 -0.768606 -3.446641 2.018181 9.838667 -15.575626 6.864146 -16.781372 -18.368657 -22.105738 -6.574643 -2.501128 -32.817492 -14.641686 -5.473530 62.605260 -46.345667 -67.593772 -15.335969 -22.342507 -40.063065 29.382347 7.106030 6.528676 42.127535 9.744854 -4.125115 -36.810016 41.441138 -37.051492 -11.918644 9.480819 -21.427747 
-0.231386 -0.235320 0.832216 -145.017636 -7.037567 114.311013 11.434288 0.601538 1.041635 -8.530074 -10.209682 32.078227 -17.561715 1.077481 2.386491 0.000000 -0.000000 0.000000 -5.458884 -8.017711 -74.137489 0.640587 -35.491190 66.822767 2.225745 8.540047 -22.377102 0.000000 -0.000000 0.000000 -1.880157 -5.136341 32.622774 0.763159 3.953045 8.769187 1.344051 -0.689145 -2.658291 0.766540 8.464520 -13.466862 4.774026 -15.614710 -18.098586 -23.690205 2.619018 -1.801180 -40.533479 -10.583107 -2.742264 66.162939 -47.341808 -70.596738 -14.868482 -25.435793 -50.163252 28.612488 1.937922 6.709821 43.933008 9.466067 -3.693380 -38.136902 40.068787 -38.836691 -12.926483 9.226911 -23.231630 
-0.290933 -0.133089 0.824024 -145.966260 -9.871795 113.762604 8.080931 -4.132025 2.897390 -6.643728 -6.871785 41.029349 -12.943800 5.499171 1.511085 0.000000 -0.000000 0.000000 -3.001295 -5.453694 -69.627521 3.395132 -34.972589 52.580543 -5.972955 4.253869 -17.919788 0.000000 -0.000000 0.000000 -1.480926 -3.882730 29.375268 -0.174289 5.396922 9.301332 1.318991 -0.962103 -1.018989 1.344347 3.530461 -11.538032 5.799911 -14.206890 -18.794657 -23.892082 9.791998 0.795910 -48.902026 -6.491426 -2.984510 73.625808 -47.755986 -75.812687 -15.593717 -27.055595 -54.962020 26.718319 -2.235389 7.436851 47.133227 8.995625 -3.460474 -37.833587 39.826803 -38.798959 -10.530879 8.151613 -26.425566 
-0.346689 -0.029123 0.810619 -146.014020 -12.911835 111.924253 6.917106 -5.093875 -1.294661 -7.456095 -3.630072 60.462956 -10.857003 6.547114 -0.208412 0.000000 -0.000000 0.000000 0.155920 -3.589577 -61.884663 -2.044898 -31.764612 59.407313 -16.873834 -5.991502 -34.825722 0.000000 -0.000000 0.000000 -1.821249 -1.457656 27.644753 -0.736994 6.730117 8.572946 0.997271 -0.394172 0.816480 2.590978 -1.459537 -10.740327 6.911785 -16.021657 -18.799064 -22.887868 15.339220 2.200039 -55.849652 -2.683775 -4.607416 81.678546 -48.688342 -81.077073 -13.176807 -24.540528 -59.999739 25.040035 -4.941429 7.134196 51.404517 6.118558 -4.840207 -35.320935 40.322727 -36.272724 -8.201105 7.379412 -30.009760 
